<svg version="1.2" xmlns="http://www.w3.org/2000/svg" viewBox="0 0 1552 732" width="1552" height="732"><defs><linearGradient id="P" gradientUnits="userSpaceOnUse"/><linearGradient id="g1" x2="1" href="#P" gradientTransform="matrix(897.777,897.592,-466.5,466.597,675.375,-407.301)"><stop offset=".57" stop-color="#e94843" stop-opacity="0"/><stop offset=".61" stop-color="#e54641" stop-opacity=".04"/><stop offset=".67" stop-color="#da413d" stop-opacity=".16"/><stop offset=".74" stop-color="#c83837" stop-opacity=".36"/><stop offset=".82" stop-color="#af2c2e" stop-opacity=".63"/><stop offset=".9" stop-color="#8e1d22" stop-opacity="1"/><stop offset=".93" stop-color="#8e1d22" stop-opacity=".98"/><stop offset=".94" stop-color="#8e1d22" stop-opacity=".91"/><stop offset=".96" stop-color="#8e1d22" stop-opacity=".8"/><stop offset=".97" stop-color="#8e1d22" stop-opacity=".64"/><stop offset=".99" stop-color="#8e1d22" stop-opacity=".43"/><stop offset="1" stop-color="#8e1d22" stop-opacity=".2"/></linearGradient><linearGradient id="g2" x2="1" href="#P" gradientTransform="matrix(441.835,0,0,251.71,134.964,239.648)"><stop stop-color="#a01f24" stop-opacity="1"/><stop offset=".3" stop-color="#e7211a" stop-opacity="1"/><stop offset=".36" stop-color="#e72922" stop-opacity=".96"/><stop offset=".47" stop-color="#ea413b" stop-opacity=".86"/><stop offset=".6" stop-color="#ee6762" stop-opacity=".68"/><stop offset=".75" stop-color="#f49c99" stop-opacity=".44"/><stop offset=".92" stop-color="#fbdfde" stop-opacity=".14"/><stop offset="1" stop-color="#fff" stop-opacity="0"/></linearGradient><linearGradient id="g3" x2="1" href="#P" gradientTransform="matrix(447.961,-79.084,37.41,211.902,121.04,259.7)"><stop offset=".2" stop-color="#8f0108" stop-opacity="1"/><stop offset=".27" stop-color="#980009" stop-opacity=".89"/><stop offset=".51" stop-color="#b9000c" stop-opacity=".51"/><stop offset=".73" stop-color="#d1000f" stop-opacity=".23"/><stop offset=".9" stop-color="#e00011" stop-opacity=".06"/><stop offset="1" stop-color="#e60012" stop-opacity="0"/></linearGradient><linearGradient id="g4" x2="1" href="#P" gradientTransform="matrix(447.961,-79.084,37.41,211.902,121.04,259.7)"><stop stop-color="#fff" stop-opacity=".5"/><stop offset=".24" stop-color="#fff" stop-opacity="0"/></linearGradient><linearGradient id="g5" x2="1" href="#P" gradientTransform="matrix(436.451,76.857,-44.473,252.552,922.284,525.503)"><stop stop-color="#f5c91f"/><stop offset=".12" stop-color="#f0bf1f"/><stop offset=".31" stop-color="#e6a71f"/><stop offset=".56" stop-color="#d47f20"/><stop offset=".85" stop-color="#bc4822"/><stop offset="1" stop-color="#ae2823"/></linearGradient><linearGradient id="g6" x2="1" href="#P" gradientTransform="matrix(436.451,76.857,-44.473,252.552,922.284,525.503)"><stop stop-color="#fdd000"/><stop offset=".15" stop-color="#fbcc00"/><stop offset=".27" stop-color="#f6c201"/><stop offset=".38" stop-color="#eeb102"/><stop offset=".49" stop-color="#e39904"/><stop offset=".59" stop-color="#d47a06"/><stop offset=".69" stop-color="#c25309"/><stop offset=".79" stop-color="#ad270d"/><stop offset=".85" stop-color="#9f0810"/></linearGradient><linearGradient id="g7" x2="1" href="#P" gradientTransform="matrix(436.451,76.857,-44.473,252.552,922.284,525.503)"><stop offset=".75" stop-color="#fff" stop-opacity="0"/><stop offset=".79" stop-color="#fff" stop-opacity=".1"/><stop offset=".85" stop-color="#fff" stop-opacity=".23"/><stop offset=".9" stop-color="#fff" stop-opacity=".32"/><stop offset=".96" stop-color="#fff" stop-opacity=".38"/><stop offset="1" stop-color="#fff" stop-opacity=".4"/></linearGradient><linearGradient id="g8" x2="1" href="#P" gradientTransform="matrix(814.33,-970.625,959.237,804.776,580.559,1035.415)"><stop offset=".74" stop-color="#e60012" stop-opacity="0"/><stop offset=".77" stop-color="#df0011" stop-opacity=".08"/><stop offset=".84" stop-color="#cd000f" stop-opacity=".28"/><stop offset=".92" stop-color="#b0000b" stop-opacity=".61"/><stop offset="1" stop-color="#8f0108" stop-opacity="1"/></linearGradient><linearGradient id="g9" x2="1" href="#P" gradientTransform="matrix(1258.487,337.131,-269.223,1004.991,305.2,23.377)"><stop offset=".88" stop-color="#fff" stop-opacity="0"/><stop offset=".9" stop-color="#fff" stop-opacity=".04"/><stop offset=".93" stop-color="#fff" stop-opacity=".13"/><stop offset=".97" stop-color="#fff" stop-opacity=".28"/><stop offset="1" stop-color="#fff" stop-opacity=".4"/></linearGradient><linearGradient id="g10" x2="1" href="#P" gradientTransform="matrix(574.132,-994.755,1224.742,706.871,495.89,872.253)"><stop stop-color="#7e0000" stop-opacity="1"/><stop offset=".01" stop-color="#840001" stop-opacity=".94"/><stop offset=".07" stop-color="#9e0005" stop-opacity=".69"/><stop offset=".14" stop-color="#b40009" stop-opacity=".47"/><stop offset=".21" stop-color="#c7000c" stop-opacity=".3"/><stop offset=".29" stop-color="#d5000f" stop-opacity=".16"/><stop offset=".4" stop-color="#de0010" stop-opacity=".07"/><stop offset=".55" stop-color="#e40011" stop-opacity=".01"/><stop offset=".96" stop-color="#e60012" stop-opacity="0"/></linearGradient><linearGradient id="g11" x2="1" href="#P" gradientTransform="matrix(438.814,253.376,-232.533,402.715,990.997,242.247)"><stop offset=".22" stop-color="#fff" stop-opacity="0"/><stop offset=".26" stop-color="#fff" stop-opacity=".11"/><stop offset=".32" stop-color="#fff" stop-opacity=".25"/><stop offset=".38" stop-color="#fff" stop-opacity=".36"/><stop offset=".45" stop-color="#fff" stop-opacity=".44"/><stop offset=".51" stop-color="#fff" stop-opacity=".48"/><stop offset=".58" stop-color="#fff" stop-opacity=".5"/><stop offset=".68" stop-color="#fff" stop-opacity=".49"/><stop offset=".74" stop-color="#fff" stop-opacity=".46"/><stop offset=".79" stop-color="#fff" stop-opacity=".4"/><stop offset=".84" stop-color="#fff" stop-opacity=".32"/><stop offset=".88" stop-color="#fff" stop-opacity=".21"/><stop offset=".92" stop-color="#fff" stop-opacity=".09"/><stop offset=".95" stop-color="#fff" stop-opacity="0"/></linearGradient><linearGradient id="g12" x2="1" href="#P" gradientTransform="matrix(395.007,331.337,-279.891,333.674,69.826,201.039)"><stop offset=".22" stop-color="#fff" stop-opacity="0"/><stop offset=".26" stop-color="#fff" stop-opacity=".11"/><stop offset=".32" stop-color="#fff" stop-opacity=".25"/><stop offset=".38" stop-color="#fff" stop-opacity=".36"/><stop offset=".45" stop-color="#fff" stop-opacity=".44"/><stop offset=".51" stop-color="#fff" stop-opacity=".48"/><stop offset=".58" stop-color="#fff" stop-opacity=".5"/><stop offset=".68" stop-color="#fff" stop-opacity=".49"/><stop offset=".74" stop-color="#fff" stop-opacity=".46"/><stop offset=".79" stop-color="#fff" stop-opacity=".4"/><stop offset=".84" stop-color="#fff" stop-opacity=".32"/><stop offset=".88" stop-color="#fff" stop-opacity=".21"/><stop offset=".92" stop-color="#fff" stop-opacity=".09"/><stop offset=".95" stop-color="#fff" stop-opacity="0"/></linearGradient><linearGradient id="g13" x2="1" href="#P" gradientTransform="matrix(745.364,0,0,553.812,768.012,454.6)"><stop stop-color="#e60012" stop-opacity="1"/><stop offset=".32" stop-color="#d80c18" stop-opacity="1"/><stop offset=".6" stop-color="#c8161d" stop-opacity="0"/></linearGradient><linearGradient id="g14" x2="1" href="#P" gradientTransform="matrix(301.822,-522.715,421.17,243.189,1102.004,744.543)"><stop stop-color="#fdd000"/><stop offset=".1" stop-color="#fbc901"/><stop offset=".23" stop-color="#f5b805"/><stop offset=".39" stop-color="#ec9c0b"/><stop offset=".56" stop-color="#e07414"/><stop offset=".73" stop-color="#d04220"/><stop offset=".82" stop-color="#c82826"/></linearGradient><linearGradient id="g15" x2="1" href="#P" gradientTransform="matrix(745.364,0,0,553.812,768.012,454.6)"><stop offset=".78" stop-color="#fdd000" stop-opacity="0"/><stop offset=".85" stop-color="#f3ac0a" stop-opacity=".17"/><stop offset="1" stop-color="#db5425" stop-opacity=".6"/></linearGradient><linearGradient id="g16" x2="1" href="#P" gradientTransform="matrix(485.404,-485.219,314.992,315.112,998.612,782.224)"><stop stop-color="#b79200" stop-opacity="1"/><stop offset=".04" stop-color="#b89300" stop-opacity=".98"/><stop offset=".08" stop-color="#bc9700" stop-opacity=".92"/><stop offset=".12" stop-color="#c49d00" stop-opacity=".81"/><stop offset=".16" stop-color="#cea600" stop-opacity=".67"/><stop offset=".2" stop-color="#dbb200" stop-opacity=".48"/><stop offset=".24" stop-color="#ebc000" stop-opacity=".25"/><stop offset=".27" stop-color="#fdd000" stop-opacity="0"/></linearGradient><linearGradient id="g17" x2="1" href="#P" gradientTransform="matrix(745.364,0,0,383.104,768.012,364.572)"><stop stop-color="#fff5d7" stop-opacity=".5"/><stop offset=".1" stop-color="#fff5d8" stop-opacity=".49"/><stop offset=".19" stop-color="#fff6db" stop-opacity=".44"/><stop offset=".27" stop-color="#fff7e1" stop-opacity=".37"/><stop offset=".35" stop-color="#fff9e9" stop-opacity=".27"/><stop offset=".43" stop-color="#fffcf3" stop-opacity=".15"/><stop offset=".5" stop-color="#fff" stop-opacity="0"/></linearGradient><linearGradient id="g18" x2="1" href="#P" gradientTransform="matrix(232.958,403.546,-495.906,286.275,190.856,102.844)"><stop offset=".46" stop-color="#e60012" stop-opacity="0"/><stop offset=".52" stop-color="#d1000f" stop-opacity=".24"/><stop offset=".63" stop-color="#ad000b" stop-opacity=".65"/><stop offset=".71" stop-color="#970008" stop-opacity=".9"/><stop offset=".76" stop-color="#8f0108" stop-opacity="1"/><stop offset=".86" stop-color="#900008" stop-opacity=".99"/><stop offset=".9" stop-color="#940008" stop-opacity=".94"/><stop offset=".92" stop-color="#9b0009" stop-opacity=".86"/><stop offset=".94" stop-color="#a5000a" stop-opacity=".74"/><stop offset=".96" stop-color="#b3000c" stop-opacity=".58"/><stop offset=".98" stop-color="#c3000e" stop-opacity=".39"/><stop offset=".99" stop-color="#d60010" stop-opacity=".17"/><stop offset="1" stop-color="#e60012" stop-opacity="0"/></linearGradient><linearGradient id="g19" x2="1" href="#P" gradientTransform="matrix(351.386,351.386,-384.442,384.442,126.816,140.711)"><stop offset=".7" stop-color="#fff" stop-opacity="0"/><stop offset=".83" stop-color="#fff" stop-opacity=".2"/><stop offset=".94" stop-color="#fff" stop-opacity=".35"/><stop offset="1" stop-color="#fff" stop-opacity=".4"/></linearGradient><linearGradient id="g20" x2="1" href="#P" gradientTransform="matrix(485.462,-280.323,148.392,256.985,17.265,374.242)"><stop offset=".21" stop-color="#c8161d" stop-opacity="0"/><stop offset=".28" stop-color="#d23a17" stop-opacity=".2"/><stop offset=".37" stop-color="#dd6111" stop-opacity=".41"/><stop offset=".46" stop-color="#e7830b" stop-opacity=".59"/><stop offset=".55" stop-color="#ef9f07" stop-opacity=".74"/><stop offset=".64" stop-color="#f5b404" stop-opacity=".85"/><stop offset=".73" stop-color="#f9c301" stop-opacity=".93"/><stop offset=".82" stop-color="#fccc00" stop-opacity=".98"/><stop offset=".9" stop-color="#fdd000" stop-opacity="1"/></linearGradient><linearGradient id="g21" x2="1" href="#P" gradientTransform="matrix(379.971,-379.971,265.685,265.685,71.866,461.468)"><stop offset=".68" stop-color="#fdd108" stop-opacity="0"/><stop offset=".8" stop-color="#fdd007" stop-opacity="0"/><stop offset=".84" stop-color="#fdd007" stop-opacity=".03"/><stop offset=".87" stop-color="#fdd007" stop-opacity=".08"/><stop offset=".9" stop-color="#fdd006" stop-opacity=".15"/><stop offset=".92" stop-color="#fdd006" stop-opacity=".24"/><stop offset=".94" stop-color="#fdd005" stop-opacity=".34"/><stop offset=".95" stop-color="#fdd004" stop-opacity=".47"/><stop offset=".97" stop-color="#fdd003" stop-opacity=".62"/><stop offset=".99" stop-color="#fdd001" stop-opacity=".79"/><stop offset="1" stop-color="#fdd000" stop-opacity="1"/></linearGradient></defs><style>.a{fill:#e83820}.b{fill:url(#g1)}.c{fill:#edc300}.d{fill:url(#g2)}.e{fill:url(#g3)}.f{fill:url(#g4)}.g{fill:#f5c91f}.h{fill:url(#g5)}.i{fill:url(#g6)}.j{fill:url(#g7)}.k{fill:url(#g8)}.l{fill:url(#g9)}.m{fill:url(#g10)}.n{fill:url(#g11)}.o{fill:url(#g12)}.p{fill:#c82826}.q{fill:url(#g13)}.r{fill:url(#g14)}.s{fill:url(#g15)}.t{fill:url(#g16)}.u{fill:url(#g17)}.v{fill:#e83828}.w{fill:url(#g18)}.x{fill:url(#g19)}.y{fill:url(#g20)}.z{fill:url(#g21)}</style><path class="a" d="m1459.6 603.9c48.9-69.2 65.7-156.1 45.4-238.4-0.2-1-0.6-1.8-0.8-2.5-0.2-1-0.6-1.8-0.7-2.8-0.4-1.5-1-3.5-1.6-5-1.2-3.5-2.3-7.1-3.5-10.4-0.6-1.5-1.4-3.3-2-4.8-0.9-3-2.1-5.7-3.3-8.2-0.4-1.2-1-2.2-1.3-3.1 0-0.4-0.2-0.8-0.4-1.2-0.6-1.4-1.2-2.7-2-3.9-0.2-0.8-0.6-1.4-1-2.2-0.4-0.5-0.5-1.1-0.7-1.9-1-2-2-3.7-3-5.5-0.4-0.9-0.7-1.5-1.1-2.3-0.8-1.4-1.4-2.5-2.2-3.9-1.2-2-2.1-3.9-3.3-5.9 0 0 0-0.3-0.2-0.3q-2.7-4.3-5.6-8.8c-0.4-0.8-1-1.8-1.6-2.5-2-2.8-3.7-5.3-5.7-8.2q0-0.2-0.5-0.4c-1.8-2.8-3.9-5.3-5.9-7.8-1.9-2.8-4.3-5.5-6.4-7.8-2.4-2.8-4.5-5.1-6.9-7.6-1.3-1.8-2.9-3.3-4.2-4.7-1.2-1.4-2.4-2.5-3.7-3.5-1-1.4-2.4-2.5-3.7-3.5-1.2-1.4-2.6-2.6-3.9-3.7-1-1.2-2.2-2.2-3.6-3.3-1.5-1.6-3.5-3.2-5.2-4.5-6.8-5.9-14.3-11.3-21.7-16-3.5-2.5-7-4.7-10.7-6.8-4.1-2.4-8.2-4.5-12.3-6.9-1.9-1.1-3.9-1.9-5.8-2.9-2.2-1-4.1-2.1-6.3-2.7q-6.1-2.9-12.2-5.3-3.3-1.4-6.5-2.3c0 0-0.2 0-0.4 0-0.9-0.4-1.7-0.8-2.7-1-1.2-0.4-1.9-0.8-3.1-1.2-2-0.5-3.7-1.3-5.7-1.7-0.4 0-0.6-0.2-0.9-0.2q-2-0.6-3.9-1.2c-0.8-0.4-2-0.6-3-1-1.5-0.5-3.3-0.9-4.8-1.1q-1.2-0.4-2.4-0.6c-1.7-0.4-3.7-1-5.4-1.4-3.9-0.9-8.2-1.7-12.5-2.3-3.9-0.8-8-1.4-11.9-1.8q-2.7-0.2-5.7-0.5c-1.3 0-2.9-0.4-4.5-0.4-0.3 0-0.7 0-1.3 0-1.4 0-2.7-0.2-3.9-0.4-0.6 0-1 0-1.4 0h-0.6c-1.5 0-3.1 0-4.6-0.2-0.4 0-1 0-1.4 0-2.4 0-4.3 0-6.4 0-18.2 0-36.5 1.9-54.8 6-0.6 0-1 0.2-1.6 0.4-2.9 0.8-5.8 1.4-8.8 2.3-2.9 0.8-5.6 1.8-8.5 2.8-2.8 0.6-5.1 1.5-7.8 2.3-1.4 0.6-3.2 1.2-4.5 1.6-1.8 0.6-3.3 1.1-5.3 1.9 0 0-0.2 0-0.4 0-1.9 0.8-3.9 1.6-5.6 2.2-1 0.4-2 0.8-2.8 1.1-1.1 0.6-2.5 1.2-3.7 1.6-1.1 0.6-2.1 1-3.3 1.4-2.7 1.1-5.4 2.5-8.4 3.7q-4.1 1.9-8.4 3.9c-0.2 0-0.3 0.2-0.5 0.4-2.8 1.3-5.1 2.5-7.6 3.7-2.8 1.3-5.3 2.9-7.8 4.1-1.8 0.9-3.4 1.7-4.9 2.7-1.8 0.8-3.1 1.7-4.9 2.7-2.1 1.4-4.3 2.4-6.2 3.7q-2.4 1.4-4.5 2.7c-2.2 1.4-4.3 3-6.5 4.1q-2.3 1.8-4.8 3.4c-2.8 1.7-5.1 3.3-7.4 5.2-2.6 2-5.1 3.7-7.4 5.7-45.5 35.3-87.4 75-124.8 118.7-58.9 63.4-119.2 125.3-180.2 186.2q-13.7 11.7-27.5 23.4c-54.8 43.2-114.4 79.7-177.8 109.1-98.5 42.7-207.3 54.2-312.5 32.8-141.6-38.2-242.8-163.6-249.8-310.6 0-84.6 32-165.5 88.3-227.1-62 71.6-75.4 172.9-34.3 258.1 39.2 76.3 119.5 121.9 204.9 116.8 65.1-3.1 128.3-23.6 182.9-59.3 58.5-38 113.1-81.3 163-129.8 14.1-14.8 28.3-29.6 42.5-44.4 35.9-36.9 72.2-73.5 108.8-109.4 52.1-50.5 108.4-95.9 169.1-135.7 75.2-47.2 162.2-73.1 251.1-74.9 98.3-2.7 193.6 34.6 264.2 103 70.6 68.8 110.1 163 109.9 261.4-1.1 91-35.3 174.1-90.8 238.6z"/><path class="b" d="m1550.4 365.5c0-98.4-39.3-192.6-109.9-261.4-70.6-68.6-165.9-105.7-264.2-103-34.3 0.8-68.5 5.1-101.4 12.7v231.6c1.8-1.4 3.7-2.7 5.5-4.1 2.5-1.7 4.8-3.5 7.6-5.2q2.3-1.6 4.8-3.4 3.3-2 6.5-4.1 2.1-1.3 4.5-2.7c1.9-1.3 4-2.5 6.2-3.7 1.6-1 3.1-1.9 4.9-2.7 1.3-1 3.1-2 4.6-2.7 2.8-1.4 5.3-2.8 7.8-4.1 2.6-1.2 5.1-2.6 7.6-3.7 0.2 0 0.4-0.2 0.8-0.4q4.3-2 8.4-3.9c2.7-1.2 5.7-2.4 8.4-3.7 1.2-0.4 2.1-0.8 3.3-1.4 1.4-0.6 2.5-1 3.7-1.6 1-0.3 2-0.7 2.6-1.1 1.9-0.6 3.8-1.4 5.8-2.2 0 0 0.2 0 0.4 0 1.5-0.6 3.3-1.3 5.3-1.9 1.3-0.4 3.1-1 4.4-1.6 2.8-1 5.1-1.7 7.6-2.3 3-1 5.9-2 8.8-2.8 2.9-0.9 5.9-1.5 8.8-2.3 0.6 0 1-0.2 1.4-0.4 18.5-4.1 36.8-6 54.7-6 2.4 0 4.3 0 6.7 0q0.6 0 1.1 0c1.8 0 3.4 0 4.9 0.2h0.6c0 0 1 0 1.4 0 1.1 0 2.5 0 3.9 0.4 0.4 0 0.7 0 1.3 0 1.6 0 3 0.2 4.5 0.4 2 0 3.7 0.3 5.7 0.5 4.1 0.6 8 1.2 11.9 1.8 4.1 0.6 8.2 1.4 12.4 2.3 2 0.4 3.7 0.8 5.5 1.4 0.8 0 1.6 0.4 2.1 0.6 1.8 0.2 3.6 0.8 5.1 1.1 1.2 0.2 2.2 0.6 2.9 1q2 0.6 3.9 1.2c0.4 0 0.6 0 1 0.2 2 0.4 3.7 1 5.7 1.7 0.9 0.4 1.9 0.8 3.1 1.2 1 0.2 1.7 0.6 2.7 1 0 0 0.2 0 0.4 0 2 0.6 4.3 1.4 6.2 2.3 4.3 1.8 8.4 3.3 12.5 5.3q3.1 1.4 6.3 2.7c1.9 1 4.1 2 5.8 2.9 4.3 2.4 8.4 4.5 12.3 6.9 3.7 2.1 7.2 4.3 10.7 6.8 7.4 4.7 14.6 10.1 21.7 16 1.7 1.3 3.7 2.9 5.2 4.5 1.2 0.9 2.4 2.1 3.5 3.3 1.4 0.9 2.8 2.3 3.9 3.7 1.4 1 2.6 2.1 3.7 3.5q2.1 1.4 3.5 3.5c1.6 1.4 3.4 3.1 4.5 4.7 2.6 2.3 4.7 4.8 6.9 7.6 2.1 2.5 4.2 5 6.4 7.8 1.9 2.5 4.1 4.8 5.8 7.8q0.4 0.2 0.6 0.4c2.2 2.7 3.9 5.4 5.7 8.2 0.6 0.7 1 1.7 1.5 2.5q3 4.5 5.7 8.8c0 0 0.2 0.2 0.2 0.3 1.2 2 2.1 3.8 3.3 5.9 0.8 1.4 1.6 2.5 2 3.9 0.5 0.8 0.9 1.6 1.3 2.3 1 1.8 2 3.5 2.7 5.5 0.4 0.6 0.8 1.4 1 1.9 0.4 0.6 0.8 1.4 1 2.2 0.6 1.2 1.4 2.5 1.8 3.9 0 0.4 0.3 0.8 0.5 1.2 0.6 0.9 1 2.1 1.4 3.1 1.2 2.7 2.1 5.2 3.3 8.2 0.8 1.5 1.4 3.3 2 4.8 1.1 3.3 2.3 7.1 3.5 10.4 0.6 1.5 1 3.5 1.5 5 0.2 1 0.6 1.8 0.8 2.8 0.2 0.7 0.6 1.5 0.8 2.5 20.3 82.3 3.7 169.2-45.4 238.4 55.5-64.3 89.7-147.4 90.8-238.4z"/><path class="c" d="m574.2 231.6c-2.5 2.3-6 2.7-9.2 0.9-14.2-9.1-28.8-17.9-43.8-25.7-32-16.9-65.5-30.4-100.2-40.7-52.7-13.1-107.9-12.5-160.1 2.1-83.1 27.9-134 110.9-120.9 197.5-23.2-102.4 34.1-205.9 133.4-240.4 51.6-14.8 106.4-15.2 158.5-0.9 56.9 17.5 107.2 51.8 144.3 98.6 1.3 3.1 0.3 6.6-2 8.6z"/><path class="d" d="m574.2 231.6c-2.5 2.3-6 2.7-9.2 0.9-14.2-9.1-28.8-17.9-43.8-25.7-32-16.9-65.5-30.4-100.2-40.7-52.7-13.1-107.9-12.5-160.1 2.1-83.1 27.9-134 110.9-120.9 197.5-23.2-102.4 34.1-205.9 133.4-240.4 51.6-14.8 106.4-15.2 158.5-0.9 56.9 17.5 107.2 51.8 144.3 98.6 1.3 3.1 0.3 6.6-2 8.6z"/><path class="e" d="m574.2 231.6c-2.5 2.3-6 2.7-9.2 0.9-14.2-9.1-28.8-17.9-43.8-25.7-32-16.9-65.5-30.4-100.2-40.7-52.7-13.1-107.9-12.5-160.1 2.1-83.1 27.9-134 110.9-120.9 197.5-23.2-102.4 34.1-205.9 133.4-240.4 51.6-14.8 106.4-15.2 158.5-0.9 56.9 17.5 107.2 51.8 144.3 98.6 1.3 3.1 0.3 6.6-2 8.6z"/><path class="f" d="m574.2 231.6c-2.5 2.3-6 2.7-9.2 0.9-14.2-9.1-28.8-17.9-43.8-25.7-32-16.9-65.5-30.4-100.2-40.7-52.7-13.1-107.9-12.5-160.1 2.1-83.1 27.9-134 110.9-120.9 197.5-23.2-102.4 34.1-205.9 133.4-240.4 51.6-14.8 106.4-15.2 158.5-0.9 56.9 17.5 107.2 51.8 144.3 98.6 1.3 3.1 0.3 6.6-2 8.6z"/><path class="g" d="m1379.8 476c0 2.4-0.4 4.7-0.5 7.2 0 0.8 0 1.6-0.2 2.6-0.4 2.9-0.8 5.8-1.4 8.9-1 5.7-2.2 11.6-3.5 17.4-1.6 6-3.1 11.9-5.1 17.7-27.5 69.4-84 123.2-154.8 146.8-73.1 22.1-152.1 13.5-218.8-23.9-29.8-17.2-57.7-37.9-82.2-62-2.4-3.4-1.8-7.6 0.9-10.4 3.2-2.7 7.4-2.7 10.6 0 46.2 33.6 98.2 58.3 153.8 72.4 69.6 14.4 141.9 2.9 203.6-32.6 53.8-29.8 89.8-83.4 97.6-144.1z"/><path class="h" d="m1379.8 476c0 2.4-0.4 4.7-0.5 7.2 0 0.8 0 1.6-0.2 2.6-0.4 2.9-0.8 5.8-1.4 8.9-1 5.7-2.2 11.6-3.5 17.4-1.6 6-3.1 11.9-5.1 17.7-27.5 69.4-84 123.2-154.8 146.8-73.1 22.1-152.1 13.5-218.8-23.9-29.8-17.2-57.7-37.9-82.2-62-2.4-3.4-1.8-7.6 0.9-10.4 3.2-2.7 7.4-2.7 10.6 0 46.2 33.6 98.2 58.3 153.8 72.4 69.6 14.4 141.9 2.9 203.6-32.6 53.8-29.8 89.8-83.4 97.6-144.1z"/><path class="i" d="m1379.8 476c0 2.4-0.4 4.7-0.5 7.2 0 0.8 0 1.6-0.2 2.6-0.4 2.9-0.8 5.8-1.4 8.9-1 5.7-2.2 11.6-3.5 17.4-1.6 6-3.1 11.9-5.1 17.7-27.5 69.4-84 123.2-154.8 146.8-73.1 22.1-152.1 13.5-218.8-23.9-29.8-17.2-57.7-37.9-82.2-62-2.4-3.4-1.8-7.6 0.9-10.4 3.2-2.7 7.4-2.7 10.6 0 46.2 33.6 98.2 58.3 153.8 72.4 69.6 14.4 141.9 2.9 203.6-32.6 53.8-29.8 89.8-83.4 97.6-144.1z"/><path class="j" d="m1379.8 476c0 2.4-0.4 4.7-0.5 7.2 0 0.8 0 1.6-0.2 2.6-0.4 2.9-0.8 5.8-1.4 8.9-1 5.7-2.2 11.6-3.5 17.4-1.6 6-3.1 11.9-5.1 17.7-27.5 69.4-84 123.2-154.8 146.8-73.1 22.1-152.1 13.5-218.8-23.9-29.8-17.2-57.7-37.9-82.2-62-2.4-3.4-1.8-7.6 0.9-10.4 3.2-2.7 7.4-2.7 10.6 0 46.2 33.6 98.2 58.3 153.8 72.4 69.6 14.4 141.9 2.9 203.6-32.6 53.8-29.8 89.8-83.4 97.6-144.1z"/><path class="k" d="m1550.4 365.5c0-98.4-39.3-192.6-109.9-261.4-70.6-68.6-165.9-105.7-264.2-103-88.9 1.6-175.9 27.7-251.1 74.9-60.5 39.8-117 85.4-169.1 135.7q-3.9 3.9-7.8 7.8v349.1c6.4-5.6 13.3-11.1 19.7-16.7 61.2-60.9 121.3-122.8 180.2-186.2 37.4-43.7 79.1-83.4 124.6-118.7 2.5-2 4.8-3.7 7.6-5.7 2.3-1.7 4.6-3.5 7.4-5.2q2.3-1.6 4.8-3.4 3.3-2 6.5-4.1 2.1-1.3 4.5-2.7c1.9-1.3 4.1-2.5 6.2-3.7 1.6-1 3.1-1.9 4.9-2.7 1.3-1 3.1-2 4.7-2.7 2.7-1.4 5.2-2.8 7.7-4.1 2.6-1.2 5.1-2.6 7.7-3.7 0.1 0 0.3-0.2 0.7-0.4q4.3-2 8.4-3.9c2.7-1.2 5.7-2.4 8.4-3.7 1.2-0.4 2.1-0.8 3.3-1.4 1.4-0.6 2.6-1 3.7-1.6 1-0.3 2-0.7 2.6-1.1 1.9-0.6 3.9-1.4 5.8-2.2 0 0 0.2 0 0.4 0 1.6-0.6 3.3-1.3 5.3-1.9 1.3-0.4 3.1-1 4.4-1.6 2.8-1 5.1-1.7 7.6-2.3 3-1 5.9-2 8.8-2.8 2.9-0.9 5.9-1.5 8.8-2.3 0.6 0 1-0.2 1.6-0.4 18.3-4.1 36.6-6 54.5-6 2.4 0 4.3 0 6.7 0q0.6 0 1.1 0c1.8 0 3.4 0 4.9 0.2h0.6c0 0 1 0 1.4 0 1.1 0 2.5 0 3.9 0.4 0.6 0 0.8 0 1.3 0 1.6 0 3.2 0.2 4.5 0.4 2 0 3.7 0.3 5.7 0.5 4.1 0.6 8 1.2 11.9 1.8 4.3 0.6 8.2 1.4 12.4 2.3 2 0.4 3.8 0.8 5.5 1.4 0.8 0 1.6 0.4 2.1 0.6 1.8 0.2 3.6 0.8 5.1 1.1 1.2 0.2 2.2 0.6 2.9 1q2 0.6 3.9 1.2c0.4 0 0.6 0 1 0.2 2 0.4 3.7 1 5.7 1.7 0.9 0.4 1.9 0.8 3.1 1.2 1 0.2 1.7 0.6 2.7 1 0 0 0.2 0 0.4 0 2.2 0.6 4.3 1.4 6.3 2.3 4.2 1.8 8.3 3.3 12.4 5.3q3.1 1.4 6.3 2.7c1.9 1 4.1 2 5.8 2.9 4.3 2.4 8.4 4.5 12.3 6.9 3.7 2.1 7.2 4.3 10.7 6.8 7.4 4.7 14.6 10.1 21.7 16 1.7 1.3 3.7 2.9 5.2 4.5 1.2 0.9 2.4 2.1 3.5 3.3 1.4 0.9 2.8 2.3 3.9 3.7 1.4 1 2.6 2.1 3.7 3.5q2.1 1.4 3.6 3.5c1.5 1.4 3.3 3.1 4.4 4.7 2.6 2.3 4.7 4.8 6.9 7.6 2.1 2.5 4.3 5 6.4 7.8 1.9 2.5 4.1 4.8 5.8 7.8q0.4 0.2 0.6 0.4c2.2 2.7 3.9 5.4 5.7 8.2 0.6 0.7 1.2 1.7 1.5 2.5q3 4.5 5.7 8.8c0 0 0.2 0.2 0.2 0.3 1.2 2 2.1 3.8 3.3 5.9 0.8 1.4 1.6 2.5 2.2 3.9q0.5 1.2 1.1 2.3c1 1.8 2 3.5 2.8 5.5 0.3 0.6 0.7 1.4 0.9 1.9 0.4 0.6 0.8 1.4 1 2.2 0.6 1.2 1.4 2.5 2 3.9 0 0.4 0.1 0.8 0.3 1.2 0.6 0.9 1 2.1 1.4 3.1 1.2 2.7 2.2 5.2 3.3 8.2 0.8 1.5 1.4 3.3 2 4.8 1.1 3.3 2.3 7.1 3.5 10.4 0.6 1.5 1 3.5 1.5 5 0.2 1 0.6 1.8 0.8 2.8 0.2 0.7 0.6 1.5 0.8 2.5 20.3 82.3 3.7 169.2-45.4 238.4 55.5-64.3 89.7-147.4 90.8-238.4z"/><path class="l" d="m1550.4 365.5c0-98.4-39.3-192.6-109.9-261.4-70.6-68.6-165.9-105.7-264.2-103-72.7 1.6-144.1 19-208.8 51.3v291.9c32.3-35.1 67.6-67.9 105.4-97.3 2.6-2 4.9-3.7 7.5-5.7 2.5-1.7 4.8-3.5 7.6-5.2q2.3-1.6 4.8-3.4 3.3-2 6.5-4.1 2.1-1.3 4.5-2.7c1.9-1.3 4-2.5 6.2-3.7 1.6-1 3.1-1.9 4.9-2.7 1.3-1 3.1-2 4.6-2.7 2.8-1.4 5.3-2.8 7.8-4.1 2.6-1.2 5.1-2.6 7.6-3.7 0.2 0 0.4-0.2 0.8-0.4q4.3-2 8.4-3.9c2.7-1.2 5.7-2.4 8.4-3.7 1.2-0.4 2.1-0.8 3.3-1.4 1.4-0.6 2.5-1 3.7-1.6 1-0.3 2-0.7 2.6-1.1 1.9-0.6 3.8-1.4 5.8-2.2 0 0 0.2 0 0.4 0 1.5-0.6 3.3-1.3 5.3-1.9 1.3-0.4 3.1-1 4.4-1.6 2.8-1 5.1-1.7 7.6-2.3 3-1 5.9-2 8.8-2.8 2.9-0.9 5.9-1.5 8.8-2.3 0.6 0 1-0.2 1.4-0.4 18.5-4.1 36.8-6 54.7-6 2.4 0 4.3 0 6.7 0q0.6 0 1.1 0c1.8 0 3.4 0 4.9 0.2h0.6c0 0 1 0 1.4 0 1.1 0 2.5 0 3.9 0.4 0.4 0 0.7 0 1.3 0 1.6 0 3 0.2 4.5 0.4 2 0 3.7 0.3 5.7 0.5 4.1 0.6 8 1.2 11.9 1.8 4.1 0.6 8.2 1.4 12.4 2.3 2 0.4 3.7 0.8 5.5 1.4 0.8 0 1.6 0.4 2.1 0.6 1.8 0.2 3.6 0.8 5.1 1.1 1.2 0.2 2.2 0.6 2.9 1q2 0.6 3.9 1.2c0.4 0 0.6 0 1 0.2 2 0.4 3.7 1 5.7 1.7 0.9 0.4 1.9 0.8 3.1 1.2 1 0.2 1.7 0.6 2.7 1 0 0 0.2 0 0.4 0 2 0.6 4.3 1.4 6.2 2.3 4.3 1.8 8.4 3.3 12.5 5.3q3.1 1.4 6.3 2.7c1.9 1 4.1 2 5.8 2.9 4.3 2.4 8.4 4.5 12.3 6.9 3.7 2.1 7.2 4.3 10.7 6.8 7.4 4.7 14.6 10.1 21.7 16 1.7 1.3 3.7 2.9 5.2 4.5 1.2 0.9 2.4 2.1 3.5 3.3 1.4 0.9 2.8 2.3 3.9 3.7 1.4 1 2.6 2.1 3.7 3.5q2.1 1.4 3.5 3.5c1.6 1.4 3.4 3.1 4.5 4.7 2.6 2.3 4.7 4.8 6.9 7.6 2.1 2.5 4.2 5 6.4 7.8 1.9 2.5 4.1 4.8 5.8 7.8q0.4 0.2 0.6 0.4c2.2 2.7 3.9 5.4 5.7 8.2 0.6 0.7 1 1.7 1.5 2.5q3 4.5 5.7 8.8c0 0 0.2 0.2 0.2 0.3 1.2 2 2.1 3.8 3.3 5.9 0.8 1.4 1.6 2.5 2 3.9 0.5 0.8 0.9 1.6 1.3 2.3 1 1.8 2 3.5 2.7 5.5 0.4 0.6 0.8 1.4 1 1.9 0.4 0.6 0.8 1.4 1 2.2 0.6 1.2 1.4 2.5 1.8 3.9 0 0.4 0.3 0.8 0.5 1.2 0.6 0.9 1 2.1 1.4 3.1 1.2 2.7 2.1 5.2 3.3 8.2 0.8 1.5 1.4 3.3 2 4.8 1.1 3.3 2.3 7.1 3.5 10.4 0.6 1.5 1 3.5 1.5 5 0.2 1 0.6 1.8 0.8 2.8 0.2 0.7 0.6 1.5 0.8 2.5 20.3 82.3 3.7 169.2-45.4 238.4 55.5-64.3 89.7-147.4 90.8-238.4z"/><path class="m" d="m1459.6 603.9c48.9-69.2 65.7-156.1 45.4-238.4-0.2-1-0.6-1.8-0.8-2.5-0.2-1-0.6-1.8-0.7-2.8-0.4-1.5-1-3.5-1.6-5-1.2-3.5-2.3-7.1-3.5-10.4-0.6-1.5-1.4-3.3-2-4.8-0.9-3-2.1-5.7-3.3-8.2-0.4-1.2-1-2.2-1.3-3.1 0-0.4-0.2-0.8-0.4-1.2-0.6-1.4-1.2-2.7-2-3.9-0.2-0.8-0.6-1.4-1-2.2-0.4-0.5-0.5-1.1-0.7-1.9-1-2-2-3.7-3-5.5-0.4-0.9-0.7-1.5-1.1-2.3-0.8-1.4-1.4-2.5-2.2-3.9-1.2-2-2.1-3.9-3.3-5.9 0 0 0-0.3-0.2-0.3q-2.7-4.3-5.6-8.8c-0.4-0.8-1-1.8-1.6-2.5-2-2.8-3.7-5.3-5.7-8.2q0-0.2-0.5-0.4c-1.8-2.8-3.9-5.3-5.9-7.8-1.9-2.8-4.3-5.5-6.4-7.8-2.4-2.8-4.5-5.1-6.9-7.6-1.3-1.8-2.9-3.3-4.2-4.7-1.2-1.4-2.4-2.5-3.7-3.5-1-1.4-2.4-2.5-3.7-3.5-1.2-1.4-2.6-2.6-3.9-3.7-1-1.2-2.2-2.2-3.6-3.3-1.5-1.6-3.5-3.2-5.2-4.5-6.8-5.9-14.3-11.3-21.7-16-3.5-2.5-7-4.7-10.7-6.8-4.1-2.4-8.2-4.5-12.3-6.9-1.9-1.1-3.9-1.9-5.8-2.9-2.2-1-4.1-2.1-6.3-2.7q-6.1-2.9-12.2-5.3-3.3-1.4-6.5-2.3c0 0-0.2 0-0.4 0-0.9-0.4-1.7-0.8-2.7-1-1.2-0.4-1.9-0.8-3.1-1.2-2-0.5-3.7-1.3-5.7-1.7-0.4 0-0.6-0.2-0.9-0.2q-2-0.6-3.9-1.2c-0.8-0.4-2-0.6-3-1-1.5-0.5-3.3-0.9-4.8-1.1q-1.2-0.4-2.4-0.6c-1.7-0.4-3.7-1-5.4-1.4-3.9-0.9-8.2-1.7-12.5-2.3-3.9-0.8-8-1.4-11.9-1.8q-2.7-0.2-5.7-0.5c-1.3 0-2.9-0.4-4.5-0.4-0.3 0-0.7 0-1.3 0-1.4 0-2.7-0.2-3.9-0.4-0.6 0-1 0-1.4 0h-0.6c-1.5 0-3.1 0-4.6-0.2-0.4 0-1 0-1.4 0-2.4 0-4.3 0-6.4 0-18.2 0-36.5 1.9-54.8 6-0.6 0-1 0.2-1.6 0.4-2.9 0.8-5.8 1.4-8.8 2.3-2.9 0.8-5.6 1.8-8.5 2.8-2.8 0.6-5.1 1.5-7.8 2.3-1.4 0.6-3.2 1.2-4.5 1.6-1.8 0.6-3.3 1.1-5.3 1.9 0 0-0.2 0-0.4 0-1.9 0.8-3.9 1.6-5.6 2.2-1 0.4-2 0.8-2.8 1.1-1.1 0.6-2.5 1.2-3.7 1.6-1.1 0.6-2.1 1-3.3 1.4-2.7 1.1-5.4 2.5-8.4 3.7q-4.1 1.9-8.4 3.9c-0.2 0-0.3 0.2-0.5 0.4-2.8 1.3-5.1 2.5-7.6 3.7-2.8 1.3-5.3 2.9-7.8 4.1-1.8 0.9-3.4 1.7-4.9 2.7-1.8 0.8-3.1 1.7-4.9 2.7-2.1 1.4-4.3 2.4-6.2 3.7q-2.4 1.4-4.5 2.7c-2.2 1.4-4.3 3-6.5 4.1q-2.3 1.8-4.8 3.4c-2.8 1.7-5.1 3.3-7.4 5.2-2.6 2-5.1 3.7-7.4 5.7-45.5 35.3-87.4 75-124.8 118.7-58.9 63.4-119.2 125.3-180.2 186.2q-13.7 11.7-27.5 23.4c-54.8 43.2-114.4 79.7-177.8 109.1-98.5 42.7-207.3 54.2-312.5 32.8-141.6-38.2-242.8-163.6-249.8-310.6 0-84.6 32-165.5 88.3-227.1-62 71.6-75.4 172.9-34.3 258.1 39.2 76.3 119.5 121.9 204.9 116.8 65.1-3.1 128.3-23.6 182.9-59.3 58.5-38 113.1-81.3 163-129.8 14.1-14.8 28.3-29.6 42.5-44.4 35.9-36.9 72.2-73.5 108.8-109.4 52.1-50.5 108.4-95.9 169.1-135.7 75.2-47.2 162.2-73.1 251.1-74.9 98.3-2.7 193.6 34.6 264.2 103 70.6 68.8 110.1 163 109.9 261.4-1.1 91-35.3 174.1-90.8 238.6z"/><path class="n" d="m1505 365.5c-1.4-3.5-2.3-7-3.9-10.5l-1.9-5.3-1.2-2.5c0 0-0.8-1.8-1.2-2.8l-2.1-4.8-2.6-5.1-0.9-2.3-1.4-2.8-2.5-4.8-1-2-2.5-4.9-3-4.6-2.7-4.5-2.9-4.7-0.4-1c0 0 0.4 1 0.8 1.2l-0.6-0.8-3.1-4.7-1.8-2.3-0.8-1.2-0.7-1.1-7.1-9.2-0.4-0.6c0 0 0 0.4 0.4 0.6l-0.6-0.6-4.2-5.3c-1.6-1.5-3.2-3.5-4.7-5l-2.6-2.8-0.9-1.1-1.2-1.2-4.9-5.1-1.1-1.1-1.2-1.2-2.7-2.5-4.9-4.5-2.7-2.6-2.4-2.1-5.4-4.5-4.1-3.5c-1.6-1.4-3.4-2.3-4.7-3.5-2.9-2.3-6.3-4.5-9.4-6.6l-4.9-3.3c-1.3-0.8-3.3-2-4.6-3l-5.1-2.9-2.5-1.6-1.4-0.7-0.6-0.2c0 0-0.4-0.4 0.4 0l-0.4-0.2-10.3-5.7-1.4-0.8-1.2-0.5-2.5-1.2-2.3-1.2-3-1.1-2.7-1-2.3-1-5.7-2.3-2.7-1-1.4-0.6-1.1-0.4-5.5-2.1 1 0.4h-0.4l-1.2-0.6-1.9-0.6h-0.6l-4.5-1.8-2.3-0.7-1.4-0.4h-0.4c0.6 0-1.2-0.2 1.2 0.2l-0.6-0.2h-1c-1.9-0.6-4.3-1.4-6.4-2l-6.7-1.7-3.3-0.6-1.5-0.4h-1.6l-7-1.6-3.5-0.6h-1l-0.2-0.2c0 0 0.2 0 0.4 0h-0.4-1.5l-7.3-1.1h-1.5l-1.6-0.2-3.5-0.4h-3.3l-2-0.4h-0.1c0 0 0.9 0 0.5 0h-0.4-0.7-0.6l-5.3-0.4h0.8-4.7-1.7-2.4-4.3-4.3c-5.4 0-11.1 0.4-16.5 1-5.7 0.4-11.1 1-16.8 1.9-2.7 0.4-5.7 1-8.2 1.6l-4.1 0.8-1.9 0.4h-0.6c-0.6 0 0.8-0.2 0.6 0h-0.2l-1.2 0.4h-0.4l-8.4 2.5-8.4 2.5-8.1 2.8-8.6 3.1-1 0.2h-0.4 1l-4.1 1.5-2 0.8-1.9 0.8-4.1 1.5-4.1 1.8-4.1 1.8-1.9 0.9-2 0.8-8.6 3.9h0.6q-4.7 2-9.3 4.5l-4.9 2.5-4.7 2.6-9.4 5.4-2.1 1.4-2.3 1.4-4.5 2.9-4.5 2.7-4.5 2.9-4.7 3.1-2.1 1.6-2.2 1.6-4.4 3.1c-1 0.8-2.8 2.1-4.1 3.1l-8.6 6.6c-5.9 4.5-11.3 9.2-17 13.7q-8.4 6.8-16.7 13.8c-11 9.6-21.9 19.1-32.4 29.3-5.5 4.8-10.5 9.9-15.8 15.2-5.3 4.8-10.3 10.1-15.4 15.4-5.1 5-10.1 10.5-15 15.8l-2 1.9c-0.9 1-1.1 1.6-1.9 2.2l-3.9 3.9-7.8 7.6c-10.7 10.1-21.1 20.4-31.6 30.6-10.5 10.1-21.5 20.2-32 30.2 9.6-11.3 18.9-22.4 28.5-33.6 9.3-11.3 19.1-22.4 28.6-33.3 4.7-5.4 10-11.1 14.5-16.6q7-8.4 14-16.9c9.8-11.1 19.5-22.2 29.6-33 10.4-10.5 20.9-20.8 31.6-31.2 5.5-4.8 11-9.9 16.6-14.8 5.7-4.8 11.1-9.5 17-14.4l8.4-7c1.5-1.4 2.7-2.4 4.4-3.5l4.3-3.5 2.6-1.8 2.1-1.7 4.5-3.2 4.7-3.1 4.5-3.1 4.8-3.1 2.6-1.6 2.5-1.5 9.6-5.7 4.8-2.7 4.9-2.8c3.1-1.7 6.6-3.5 10.1-5h0.6l7.6-3.9 2.4-1 1.9-1 4.1-1.7 4.3-2 4.3-1.7 1.9-0.8 2.6-1 4.3-1.7 0.7-0.4h0.6-0.9l8.5-3.1 8.8-3 9.2-2.5 8.9-2.5h-0.3l1.1-0.2 1.2-0.4h0.6l2.1-0.4 4.5-1c2.9-0.6 5.9-1.2 9-1.5 5.8-1 11.9-1.6 17.9-2 6.1-0.6 12.1-0.8 17.9-1h4.5 4.5 2.4 2.3 3.9l0.8 0.2 5.2 0.4h-0.5 2.3 1.6l3.7 0.6 3.5 0.4 1.9 0.4h1.8l7 1.1h1.6l1.3 0.6h1l3.5 1 6.8 1.4 2.2 0.4 1.5 0.4 3.5 0.9 7.3 2c2.3 0.6 4.6 1.3 7.2 2.3h-1 0.6l1.1 0.4h0.4l1.2 0.6 2.3 0.6 5.3 1.9h-0.6l3.3 1-0.9-0.4h0.4l0.7 0.6 5.7 2.1 1.6 0.8 1.3 0.6 2.7 1 5.5 2.5 2.9 1.4 2.8 1.1 2.5 1.4 2.7 1.4 2.8 1.3 1.3 1 1.4 0.8 10.1 5.8 1 0.6 0.6 0.4 1.2 0.8 2.5 1.6 5.1 3.3c1.7 0.9 3.3 2.1 4.8 3.5l4.9 3.5c3.1 2.3 6.4 4.9 9.6 7.6 1.3 1.2 3.1 2.5 4.2 3.9l4.7 4.3 5.3 4.7 2.7 2.7 2.6 2.5 4.8 5.5 2.6 2.5 0.9 1.4 1.4 1.3 4.7 5.5 1.2 1.4 1.1 1.5 2.4 2.8c1.3 1.9 2.7 3.7 4.1 5.8l4.2 5.9-0.3-0.4c0 0 0.7 0.9 1.1 1.7l-0.4-0.6 6.5 10 0.6 1.1 0.7 1.4 1.6 2.5 2.9 5.3-0.6-0.8c0 0 1 1.4 1.2 2.2l-0.4-1 2.5 4.9 1.4 2.3 1.4 2.4 2.1 5 1.2 2.4 1.2 2.9 0.7 1.9 2.2 5.3 1 2.5 0.7 3 2 5.2c0 0 0.6 2 1 2.7l0.7 2.8c0 0 0.6 1.7 0.8 2.7l0.8 2.7 1.6 5.5c0.7 3.7 1.7 7.2 2.5 10.9z"/><path class="o" d="m88.3 179.5c0 0-1.9 2.9-6 8.6-2.2 2.7-4.5 6-7 10.3-1.4 2.2-2.8 4.3-4.1 6.7-0.8 1.1-1.6 2.5-2.4 3.7-0.8 1.3-1.3 2.7-2.1 4.1-2.9 5.6-6.5 11.7-9.2 18.7-3.1 7-5.8 14.6-9 23-5 16.4-9.3 35.7-11.1 56.9-1.3 21.1-0.2 44.3 4.9 67.8 0.8 3.2 1.2 6.1 2.2 9 0.7 2.9 1.5 6.1 2.5 9 1.5 5.8 4.1 11.7 6 17.5q1 2.4 1.8 4.5l1.9 4.3c1.4 2.9 2.8 5.8 3.9 8.8l0.6 0.9v0.6l0.4 0.2c0 0.2-0.4-0.6 0-0.2l1.4 2.4 2.5 4.4c1.8 2.8 3.3 5.9 5.3 8.4 3.7 5.3 7 10.8 11.3 15.8 1.9 2.8 4.1 5.3 6.2 7.8 2.4 2.6 4.5 4.9 6.8 7.4 9.4 9.8 19.5 18.9 30.9 26.7 22 15.8 47.9 27.3 74.8 33.6 6.8 1.3 13.7 2.9 20.5 3.5 6.8 1.1 13.6 1.3 20.7 1.7 3.5 0 6.8 0 10.3 0 3.5 0 6.6 0 10.3-0.4 7.2-0.3 14.3-1.1 21.1-1.7 27.7-3.3 54.6-9.2 79.5-17.9 25.2-9 48.6-19.7 69.4-32.6q31.9-19.3 58.5-38c35.7-24.8 64.2-47.2 83.7-63.4 9.5-8.2 17.3-14.4 22.4-18.9 5.3-4.5 8-6.8 8-6.8q0 0-7 7.6c-4.7 5.1-11.5 12.3-20.7 21-18.1 18-44.8 42.7-79.3 69.8-17.4 13.3-36.5 27.5-57.6 41.4-21 14-45.2 26.5-71.1 36.4-26.1 9.6-54.2 17-83.5 20.5-7.4 1-14.8 1.7-21.8 2.1-3.5 0.4-7.4 0.4-11.1 0.6-3.7 0-7.6 0.2-11.3 0-7.6-0.4-15-0.6-22.6-1.7-7.8-0.8-15.3-2.2-22.7-3.7-29.4-7.1-57.7-19.7-81.7-37.3-6-4.3-11.7-9.1-17.3-14-2.7-2.3-5.5-5.3-8-7.6-2.5-2.5-5.3-5.1-7.6-8-2.4-2.7-4.9-5.5-7.2-8.2-2.6-2.7-4.5-5.6-6.8-8.6-4.3-5.4-8-11.7-12.1-17.9-2.2-2.9-3.4-5.9-5.1-9l-2.3-4.3-1.4-2.3-0.4-0.8v-0.4l-0.4-0.4-0.6-1.1c-1.1-3.1-2.5-6.5-4.1-9.6l-1.9-4.7q-0.9-2.3-1.8-4.6c-1.9-6.7-4.5-12.9-5.6-19.1-0.8-3.4-1.8-6.5-2.6-9.6-0.5-3.1-0.9-6.2-1.7-9.4-4.7-25.3-4.5-50.1-1.8-71.9 3-22 8.8-41.7 15.4-58.5 3.7-8.2 7-16 10.9-22.6 3.6-6.8 7.5-12.9 11-18.1 0.7-1.4 1.5-2.7 2.5-3.9 1-1.4 2-2.6 2.5-3.5 1.8-2.4 3.4-4.5 4.9-6.5 2.9-4.1 5.9-7 8-9.5 4.5-5.1 6.8-7.8 6.8-7.8z"/><path class="p" d="m1459.6 603.9c-62.8 72.3-153.3 120.3-255.4 127.3-81.1 4.5-160.9-19.7-225.6-68.4-26.1-19.9-48.4-44.5-65.5-72.1 24.5 24.1 52.2 44.8 82.2 62 66.7 37.4 145.7 46 218.8 23.9 70.8-23.7 127.5-77.4 154.8-146.8 2.2-6 3.7-11.7 5.1-17.7 1.4-5.7 2.5-11.5 3.5-17.4 0.6-3.1 1-6 1.4-8.9 0-1 0.2-1.8 0.4-2.6 0-2.5 0.3-4.8 0.3-7.2q0.6-8.3 0.6-16.7v-1.8c-0.4-52.6-19.3-104.5-55-145.2-0.7-1-1.5-2-2.5-2.7q-0.6-0.4-1.2-1c-0.5-0.6-0.9-1.2-1.3-1.6l-0.4-0.4c-2-1.5-3.5-3.3-5.5-5-55-49.4-133.5-64.4-203.3-37.5-51.3 25-98.1 58.1-138.3 98.5q-98.8 98.5-204.7 189.5c61.2-60.9 121.3-122.9 180.2-186.2 37.4-43.7 79.1-83.4 124.6-118.7 2.5-2 4.8-3.9 7.6-5.7 2.3-1.7 4.6-3.5 7.4-5.2q2.3-1.6 4.8-3.4 3.3-2 6.5-4.1 2.1-1.3 4.5-2.7c1.9-1.4 4.1-2.5 6.2-3.7 1.6-1 3.1-1.9 4.9-2.7 1.3-1 3.1-2 4.7-2.7 2.7-1.4 5.2-2.8 7.7-4.1 2.8-1.2 5.1-2.6 7.7-3.7 0.1 0 0.3-0.2 0.7-0.4q4.3-2 8.4-3.9c2.7-1.2 5.7-2.4 8.4-3.7 1.2-0.6 2.1-0.8 3.3-1.4 1.4-0.6 2.6-1 3.7-1.6 1-0.4 2-0.7 2.6-1.1 1.9-0.6 3.9-1.4 5.8-2.2 0 0 0.2 0 0.4 0 1.6-0.6 3.3-1.3 5.3-1.9 1.3-0.4 3.1-1 4.4-1.6 2.8-1 5.1-1.7 7.6-2.5 3-0.8 5.9-1.6 8.8-2.6 2.9-0.9 5.9-1.5 8.8-2.3 0.6 0 1-0.4 1.6-0.4 18.3-4.1 36.6-6 54.5-6 2.4 0 4.3 0 6.7 0q0.6 0 1.1 0c1.8 0 3.4 0 4.9 0.2 0.6 0 1.2 0 2 0 1.1 0 2.5 0 3.9 0.4 1.9 0 3.9 0.3 5.8 0.5 2 0 3.7 0.4 5.7 0.6 4.1 0.6 8 1.2 11.9 1.8 4.3 0.6 8.2 1.3 12.4 2.3 2 0.4 3.8 0.8 5.5 1.4 0.8 0 1.6 0.2 2.1 0.4 1.8 0.4 3.6 0.9 5.1 1.3 1.2 0.2 2.2 0.6 2.9 1q2 0.6 3.9 1.2c0.4 0 0.6 0 1 0.2 2 0.4 3.7 1 5.7 1.7 0.9 0.4 1.9 0.8 3.1 1.2 1 0.2 1.7 0.6 2.7 1 0 0 0.2 0 0.4 0 2.2 0.6 4.3 1.3 6.3 2.3q1.9 0.8 3.9 1.6c1.7 0.8 3.5 1.5 5 2.1 1.2 0.6 2.4 1 3.3 1.6q3.2 1.3 6.3 2.7c1.9 1 4.1 2 5.8 2.9q3.5 1.8 6.5 3.5c2.1 1.2 3.9 2.4 5.8 3.4q2.9 1.7 5.9 3.5c1.5 1.1 3.3 2.1 4.8 3.3 2 1.1 3.7 2.5 5.7 3.7 0 0 0.4 0.2 0.6 0.4 1.7 1.1 3.7 2.5 5.2 3.9 2 1.1 3.5 2.5 5.5 3.9 1.6 1.3 3.3 2.7 4.9 3.9 1.7 1.5 3.7 3.1 5.2 4.6 1.2 1 2.6 2.2 3.5 3.2 1.4 1.1 2.8 2.5 3.9 3.9 1.4 0.9 2.6 2.1 3.7 3.5 1.2 1 2.6 2.3 3.6 3.5 1.5 1.3 3.3 3.1 4.4 4.7 2.6 2.3 4.7 4.8 6.9 7.6 2.1 2.5 4.3 5 6.4 7.8 1.9 2.5 3.9 4.8 5.8 7.8q0.4 0.2 0.6 0.4c2.2 2.7 3.9 5.4 5.7 8.1 0.6 0.8 1.2 1.8 1.5 2.6q0.6 0.9 1.2 1.7c0.6 0.8 1 1.6 1.6 2.6 0.8 1.3 1.9 3.1 2.9 4.4l0.2 0.4c1.2 2 2.1 3.7 3.3 5.9 0.8 1.2 1.6 2.5 2.2 3.9 0.1 0.8 0.7 1.5 1.1 2.3 1 1.8 2 3.5 2.8 5.5 0.3 0.6 0.7 1.2 0.9 1.9 0.4 0.6 0.8 1.4 1 2.2 0.6 1.1 1.4 2.5 2 3.9 0 0.4 0.1 0.8 0.3 0.9 0.6 1.2 1 2.4 1.4 3.4 1.2 2.7 2.2 5.2 3.3 8.2 0.8 1.5 1.4 3.3 2 4.8 1.1 3.3 2.3 6.8 3.5 10.4 0.6 1.5 1 3.5 1.5 5 0.2 1 0.6 1.8 0.8 2.8 0.2 0.7 0.6 1.5 0.8 2.5 20.3 82.3 3.7 169.2-45.4 238.4z"/><path class="q" d="m1459.6 603.9c-62.8 72.3-153.3 120.3-255.4 127.3-81.1 4.5-160.9-19.7-225.6-68.4-26.1-19.9-48.4-44.5-65.5-72.1 24.5 24.1 52.2 44.8 82.2 62 66.7 37.4 145.7 46 218.8 23.9 70.8-23.7 127.5-77.4 154.8-146.8 2.2-6 3.7-11.7 5.1-17.7 1.4-5.7 2.5-11.5 3.5-17.4 0.6-3.1 1-6 1.4-8.9 0-1 0.2-1.8 0.4-2.6 0-2.5 0.3-4.8 0.3-7.2q0.6-8.3 0.6-16.7v-1.8c-0.4-52.6-19.3-104.5-55-145.2-0.7-1-1.5-2-2.5-2.7q-0.6-0.4-1.2-1c-0.5-0.6-0.9-1.2-1.3-1.6l-0.4-0.4c-2-1.5-3.5-3.3-5.5-5-55-49.4-133.5-64.4-203.3-37.5-51.3 25-98.1 58.1-138.3 98.5q-98.8 98.5-204.7 189.5c61.2-60.9 121.3-122.9 180.2-186.2 37.4-43.7 79.1-83.4 124.6-118.7 2.5-2 4.8-3.9 7.6-5.7 2.3-1.7 4.6-3.5 7.4-5.2q2.3-1.6 4.8-3.4 3.3-2 6.5-4.1 2.1-1.3 4.5-2.7c1.9-1.4 4.1-2.5 6.2-3.7 1.6-1 3.1-1.9 4.9-2.7 1.3-1 3.1-2 4.7-2.7 2.7-1.4 5.2-2.8 7.7-4.1 2.8-1.2 5.1-2.6 7.7-3.7 0.1 0 0.3-0.2 0.7-0.4q4.3-2 8.4-3.9c2.7-1.2 5.7-2.4 8.4-3.7 1.2-0.6 2.1-0.8 3.3-1.4 1.4-0.6 2.6-1 3.7-1.6 1-0.4 2-0.7 2.6-1.1 1.9-0.6 3.9-1.4 5.8-2.2 0 0 0.2 0 0.4 0 1.6-0.6 3.3-1.3 5.3-1.9 1.3-0.4 3.1-1 4.4-1.6 2.8-1 5.1-1.7 7.6-2.5 3-0.8 5.9-1.6 8.8-2.6 2.9-0.9 5.9-1.5 8.8-2.3 0.6 0 1-0.4 1.6-0.4 18.3-4.1 36.6-6 54.5-6 2.4 0 4.3 0 6.7 0q0.6 0 1.1 0c1.8 0 3.4 0 4.9 0.2 0.6 0 1.2 0 2 0 1.1 0 2.5 0 3.9 0.4 1.9 0 3.9 0.3 5.8 0.5 2 0 3.7 0.4 5.7 0.6 4.1 0.6 8 1.2 11.9 1.8 4.3 0.6 8.2 1.3 12.4 2.3 2 0.4 3.8 0.8 5.5 1.4 0.8 0 1.6 0.2 2.1 0.4 1.8 0.4 3.6 0.9 5.1 1.3 1.2 0.2 2.2 0.6 2.9 1q2 0.6 3.9 1.2c0.4 0 0.6 0 1 0.2 2 0.4 3.7 1 5.7 1.7 0.9 0.4 1.9 0.8 3.1 1.2 1 0.2 1.7 0.6 2.7 1 0 0 0.2 0 0.4 0 2.2 0.6 4.3 1.3 6.3 2.3q1.9 0.8 3.9 1.6c1.7 0.8 3.5 1.5 5 2.1 1.2 0.6 2.4 1 3.3 1.6q3.2 1.3 6.3 2.7c1.9 1 4.1 2 5.8 2.9q3.5 1.8 6.5 3.5c2.1 1.2 3.9 2.4 5.8 3.4q2.9 1.7 5.9 3.5c1.5 1.1 3.3 2.1 4.8 3.3 2 1.1 3.7 2.5 5.7 3.7 0 0 0.4 0.2 0.6 0.4 1.7 1.1 3.7 2.5 5.2 3.9 2 1.1 3.5 2.5 5.5 3.9 1.6 1.3 3.3 2.7 4.9 3.9 1.7 1.5 3.7 3.1 5.2 4.6 1.2 1 2.6 2.2 3.5 3.2 1.4 1.1 2.8 2.5 3.9 3.9 1.4 0.9 2.6 2.1 3.7 3.5 1.2 1 2.6 2.3 3.6 3.5 1.5 1.3 3.3 3.1 4.4 4.7 2.6 2.3 4.7 4.8 6.9 7.6 2.1 2.5 4.3 5 6.4 7.8 1.9 2.5 3.9 4.8 5.8 7.8q0.4 0.2 0.6 0.4c2.2 2.7 3.9 5.4 5.7 8.1 0.6 0.8 1.2 1.8 1.5 2.6q0.6 0.9 1.2 1.7c0.6 0.8 1 1.6 1.6 2.6 0.8 1.3 1.9 3.1 2.9 4.4l0.2 0.4c1.2 2 2.1 3.7 3.3 5.9 0.8 1.2 1.6 2.5 2.2 3.9 0.1 0.8 0.7 1.5 1.1 2.3 1 1.8 2 3.5 2.8 5.5 0.3 0.6 0.7 1.2 0.9 1.9 0.4 0.6 0.8 1.4 1 2.2 0.6 1.1 1.4 2.5 2 3.9 0 0.4 0.1 0.8 0.3 0.9 0.6 1.2 1 2.4 1.4 3.4 1.2 2.7 2.2 5.2 3.3 8.2 0.8 1.5 1.4 3.3 2 4.8 1.1 3.3 2.3 6.8 3.5 10.4 0.6 1.5 1 3.5 1.5 5 0.2 1 0.6 1.8 0.8 2.8 0.2 0.7 0.6 1.5 0.8 2.5 20.3 82.3 3.7 169.2-45.4 238.4z"/><path class="r" d="m1505 365.5c0 0-0.6-1.8-0.8-2.5-0.2-1-0.6-1.8-0.7-2.8-0.4-1.5-1-3.5-1.6-5-1.2-3.5-2.3-7.1-3.5-10.4-0.6-1.5-1.4-3.3-2-4.8-0.9-3-2.1-5.7-3.3-8.2-0.4-1.2-1-2.2-1.3-3.1 0-0.4-0.2-0.8-0.4-1.2-0.6-1.4-1.2-2.7-2-3.9-0.2-0.8-0.6-1.4-1-2.2-0.4-0.5-0.5-1.1-0.7-1.9-1-2-2-3.7-3-5.5q-0.6-1.1-1.1-2.3c-0.8-1.4-1.6-2.5-2.2-3.9-1.2-2-2.1-3.9-3.3-5.9 0 0 0-0.3-0.2-0.3-1-1.4-1.7-3.2-2.9-4.5-0.6-0.8-1-1.6-1.6-2.6q-0.6-0.8-1.1-1.7c-0.4-0.8-1-1.8-1.6-2.5-2-2.8-3.7-5.3-5.7-8.2q0-0.2-0.5-0.4c-1.8-2.8-3.9-5.3-5.9-7.8-1.9-2.8-4.3-5.5-6.4-7.8-2.4-2.8-4.5-5.1-6.9-7.6-1.3-1.8-2.9-3.3-4.2-4.7-1.2-1.2-2.6-2.5-3.7-3.5-1-1.4-2.4-2.5-3.7-3.5-1.2-1.4-2.6-2.6-3.9-3.7-1-1.2-2.2-2.2-3.6-3.3-1.5-1.6-3.5-3.2-5.2-4.5-1.8-1.4-3.1-2.8-4.9-3.9-1.8-1.4-3.5-2.9-5.5-4.1-1.7-1.4-3.5-2.7-5.2-3.9 0 0-0.4-0.2-0.6-0.4-2-1.4-3.7-2.7-5.7-3.7-1.5-1.2-3.3-2.3-4.8-3.1-2-1.2-3.7-2.6-5.9-3.7-1.7-1-3.9-2.2-5.6-3.3-2.4-1.2-4.5-2.4-6.7-3.6-1.9-1.1-3.9-1.9-5.8-2.9q-3.1-1.3-6.3-2.7c-0.9-0.6-2.1-1-3.3-1.6-1.5-0.7-3.3-1.5-4.8-1.9q-2-1-3.9-1.8-3.3-1.4-6.5-2.3c0 0-0.2 0-0.4 0-0.9-0.4-1.7-0.8-2.7-1-1.2-0.4-1.9-0.8-3.1-1.2-2-0.5-3.7-1.3-5.7-1.7-0.4 0-0.6-0.2-0.9-0.2q-2-0.6-3.9-1.2c-0.8-0.4-2-0.6-3-1-1.5-0.5-3.3-0.9-4.8-1.1q-1.2-0.4-2.4-0.6c-1.7-0.4-3.7-1-5.4-1.4-4.1-0.9-8.2-1.7-12.5-2.3-3.9-0.8-8-1.4-11.9-1.8q-2.7-0.2-5.7-0.5-2.9-0.3-5.8-0.6c-1.4 0-2.7-0.2-3.9-0.4-0.6 0-1.4 0-2 0-1.5 0-3.1 0-4.6-0.2-0.4 0-1 0-1.4 0-2.4 0-4.3 0-6.4 0-3.2 0-6.1 0-9 0.2v85.2c23.4 8.5 45.2 21.4 64.3 38.8 2 1.5 3.7 3.3 5.5 4.8l0.4 0.4c0.6 0.6 0.9 1 1.3 1.6q0.6 0.6 1.2 1c1 0.9 1.8 1.7 2.5 2.7 35.7 40.9 54.6 92.6 55 145.2v1.8q0 8.4-0.6 16.7c0 2.4-0.3 4.7-0.3 7.3 0 0.9 0 1.5-0.4 2.5-0.4 2.9-0.8 6-1.4 9-1 5.6-2.1 11.5-3.5 17.3-1.6 6.1-3.1 11.9-5.1 17.8-27.5 69.4-84 123.2-154.8 146.7-73.1 22.1-152.1 13.5-218.8-23.9-29.8-17-57.7-37.9-82.2-62 17.1 27.9 39.4 52.4 65.5 72.1 64.7 48.7 144.5 72.9 225.6 68.4 102.1-7 192.6-54.9 255.4-127.3 48.9-69.2 65.7-156.1 45.4-238.4z"/><path class="s" d="m1459.6 603.9c-62.8 72.3-153.3 120.3-255.4 127.3-81.1 4.5-160.9-19.7-225.6-68.4-26.1-19.9-48.4-44.5-65.5-72.1 24.5 24.1 52.2 44.8 82.2 62 66.7 37.4 145.7 46 218.8 23.9 70.8-23.7 127.5-77.4 154.8-146.8 2.2-6 3.7-11.7 5.1-17.7 1.4-5.7 2.5-11.5 3.5-17.4 0.6-3.1 1-6 1.4-8.9 0-1 0.2-1.8 0.4-2.6 0-2.5 0.3-4.8 0.3-7.2q0.6-8.3 0.6-16.7v-1.8c-0.4-52.6-19.3-104.5-55-145.2-0.7-1-1.5-2-2.5-2.7q-0.6-0.4-1.2-1c-0.5-0.6-0.9-1.2-1.3-1.6l-0.4-0.4c-2-1.5-3.5-3.3-5.5-5-55-49.4-133.5-64.4-203.3-37.5-51.3 25-98.1 58.1-138.3 98.5q-98.8 98.5-204.7 189.5c61.2-60.9 121.3-122.9 180.2-186.2 37.4-43.7 79.1-83.4 124.6-118.7 2.5-2 4.8-3.9 7.6-5.7 2.3-1.7 4.6-3.5 7.4-5.2q2.3-1.6 4.8-3.4 3.3-2 6.5-4.1 2.1-1.3 4.5-2.7c1.9-1.4 4.1-2.5 6.2-3.7 1.6-1 3.1-1.9 4.9-2.7 1.3-1 3.1-2 4.7-2.7 2.7-1.4 5.2-2.8 7.7-4.1 2.8-1.2 5.1-2.6 7.7-3.7 0.1 0 0.3-0.2 0.7-0.4q4.3-2 8.4-3.9c2.7-1.2 5.7-2.4 8.4-3.7 1.2-0.6 2.1-0.8 3.3-1.4 1.4-0.6 2.6-1 3.7-1.6 1-0.4 2-0.7 2.6-1.1 1.9-0.6 3.9-1.4 5.8-2.2 0 0 0.2 0 0.4 0 1.6-0.6 3.3-1.3 5.3-1.9 1.3-0.4 3.1-1 4.4-1.6 2.8-1 5.1-1.7 7.6-2.5 3-0.8 5.9-1.6 8.8-2.6 2.9-0.9 5.9-1.5 8.8-2.3 0.6 0 1-0.4 1.6-0.4 18.3-4.1 36.6-6 54.5-6 2.4 0 4.3 0 6.7 0q0.6 0 1.1 0c1.8 0 3.4 0 4.9 0.2 0.6 0 1.2 0 2 0 1.1 0 2.5 0 3.9 0.4 1.9 0 3.9 0.3 5.8 0.5 2 0 3.7 0.4 5.7 0.6 4.1 0.6 8 1.2 11.9 1.8 4.3 0.6 8.2 1.3 12.4 2.3 2 0.4 3.8 0.8 5.5 1.4 0.8 0 1.6 0.2 2.1 0.4 1.8 0.4 3.6 0.9 5.1 1.3 1.2 0.2 2.2 0.6 2.9 1q2 0.6 3.9 1.2c0.4 0 0.6 0 1 0.2 2 0.4 3.7 1 5.7 1.7 0.9 0.4 1.9 0.8 3.1 1.2 1 0.2 1.7 0.6 2.7 1 0 0 0.2 0 0.4 0 2.2 0.6 4.3 1.3 6.3 2.3q1.9 0.8 3.9 1.6c1.7 0.8 3.5 1.5 5 2.1 1.2 0.6 2.4 1 3.3 1.6q3.2 1.3 6.3 2.7c1.9 1 4.1 2 5.8 2.9q3.5 1.8 6.5 3.5c2.1 1.2 3.9 2.4 5.8 3.4q2.9 1.7 5.9 3.5c1.5 1.1 3.3 2.1 4.8 3.3 2 1.1 3.7 2.5 5.7 3.7 0 0 0.4 0.2 0.6 0.4 1.7 1.1 3.7 2.5 5.2 3.9 2 1.1 3.5 2.5 5.5 3.9 1.6 1.3 3.3 2.7 4.9 3.9 1.7 1.5 3.7 3.1 5.2 4.6 1.2 1 2.6 2.2 3.5 3.2 1.4 1.1 2.8 2.5 3.9 3.9 1.4 0.9 2.6 2.1 3.7 3.5 1.2 1 2.6 2.3 3.6 3.5 1.5 1.3 3.3 3.1 4.4 4.7 2.6 2.3 4.7 4.8 6.9 7.6 2.1 2.5 4.3 5 6.4 7.8 1.9 2.5 3.9 4.8 5.8 7.8q0.4 0.2 0.6 0.4c2.2 2.7 3.9 5.4 5.7 8.1 0.6 0.8 1.2 1.8 1.5 2.6q0.6 0.9 1.2 1.7c0.6 0.8 1 1.6 1.6 2.6 0.8 1.3 1.9 3.1 2.9 4.4l0.2 0.4c1.2 2 2.1 3.7 3.3 5.9 0.8 1.2 1.6 2.5 2.2 3.9 0.1 0.8 0.7 1.5 1.1 2.3 1 1.8 2 3.5 2.8 5.5 0.3 0.6 0.7 1.2 0.9 1.9 0.4 0.6 0.8 1.4 1 2.2 0.6 1.1 1.4 2.5 2 3.9 0 0.4 0.1 0.8 0.3 0.9 0.6 1.2 1 2.4 1.4 3.4 1.2 2.7 2.2 5.2 3.3 8.2 0.8 1.5 1.4 3.3 2 4.8 1.1 3.3 2.3 6.8 3.5 10.4 0.6 1.5 1 3.5 1.5 5 0.2 1 0.6 1.8 0.8 2.8 0.2 0.7 0.6 1.5 0.8 2.5 20.3 82.3 3.7 169.2-45.4 238.4z"/><path class="t" d="m1505 365.5c0 0-0.6-1.8-0.8-2.5-0.2-1-0.6-1.8-0.7-2.8-0.4-1.5-1-3.5-1.6-5-1.2-3.5-2.3-7.1-3.5-10.4-0.6-1.5-1.4-3.3-2-4.8-0.9-3-2.1-5.7-3.3-8.2-0.4-1.2-1-2.2-1.3-3.1 0-0.4-0.2-0.8-0.4-1.2-0.6-1.4-1.2-2.7-2-3.9-0.2-0.8-0.6-1.4-1-2.2-0.4-0.5-0.5-1.1-0.7-1.9-1-2-2-3.7-3-5.5q-0.6-1.1-1.1-2.3c-0.8-1.4-1.6-2.5-2.2-3.9-1.2-2-2.1-3.9-3.3-5.9 0 0 0-0.3-0.2-0.3-1-1.4-1.7-3.2-2.9-4.5-0.6-0.8-1-1.6-1.6-2.6q-0.6-0.8-1.1-1.7c-0.4-0.8-1-1.8-1.6-2.5-2-2.8-3.7-5.3-5.7-8.2q0-0.2-0.5-0.4c-1.8-2.8-3.9-5.3-5.9-7.8-1.9-2.8-4.3-5.5-6.4-7.8-2.4-2.8-4.5-5.1-6.9-7.6-1.3-1.8-2.9-3.3-4.2-4.7-1.2-1.2-2.6-2.5-3.7-3.5-1-1.4-2.4-2.5-3.7-3.5-1.2-1.4-2.6-2.6-3.9-3.7-1-1.2-2.2-2.2-3.6-3.3-1.5-1.6-3.5-3.2-5.2-4.5-1.8-1.4-3.1-2.8-4.9-3.9-1.8-1.4-3.5-2.9-5.5-4.1-1.7-1.4-3.5-2.7-5.2-3.9 0 0-0.4-0.2-0.6-0.4-2-1.4-3.7-2.7-5.7-3.7-1.5-1.2-3.3-2.3-4.8-3.1-2-1.2-3.7-2.6-5.9-3.7-1.7-1-3.9-2.2-5.6-3.3-2.4-1.2-4.5-2.4-6.7-3.6-1.9-1.1-3.9-1.9-5.8-2.9q-3.1-1.3-6.3-2.7c-0.9-0.6-2.1-1-3.3-1.6-1.5-0.7-3.3-1.5-4.8-1.9q-2-1-3.9-1.8-3.3-1.4-6.5-2.3c0 0-0.2 0-0.4 0-0.9-0.4-1.7-0.8-2.7-1-1.2-0.4-1.9-0.8-3.1-1.2-2-0.5-3.7-1.3-5.7-1.7-0.4 0-0.6-0.2-0.9-0.2q-2-0.6-3.9-1.2c-0.8-0.4-2-0.6-3-1-1.5-0.5-3.3-0.9-4.8-1.1q-1.2-0.4-2.4-0.6c-1.5-0.4-3.1-0.8-4.9-1.2v117.6c0 0 0.4 0.4 0.8 0.6 2 1.5 3.7 3.3 5.5 4.8l0.4 0.4c0.6 0.6 0.9 1 1.3 1.6q0.6 0.6 1.2 1c1 0.9 1.8 1.7 2.5 2.7 35.7 40.9 54.6 92.6 55 145.2v1.8q0 8.4-0.6 16.7c0 2.4-0.4 4.7-0.5 7.3 0 0.9 0 1.5-0.2 2.5-0.4 2.9-0.8 6-1.4 9-1 5.6-2.2 11.5-3.5 17.3-1.6 6.1-3.1 11.9-5.1 17.8-27.5 69.4-84 123.2-154.8 146.7-73.1 22.1-152.1 13.5-218.8-23.9-29.8-17-57.7-37.9-82.2-62 17.1 27.9 39.3 52.4 65.5 72.1 64.7 48.7 144.5 72.9 225.6 68.4 102.1-7 192.6-54.9 255.4-127.3 48.9-69.2 65.7-156.1 45.4-238.4z"/><path class="u" d="m1111 263.7c69.8-26.9 148.1-11.9 203.3 37.7 2 1.5 3.7 3.3 5.5 4.8l0.4 0.4c0.6 0.6 0.9 1 1.3 1.6q0.6 0.6 1.2 1c1 0.9 1.8 1.7 2.5 2.7 7.3 8.2 13.5 16.8 19.2 25.5h151.1c-1-1.9-1.8-4.1-2.8-6-0.4-1.2-0.9-2.2-1.1-3.1 0-0.4-0.4-0.8-0.6-1.2-0.6-1.4-1.2-2.5-2-3.9-0.2-0.8-0.6-1.4-1-2.1-0.1-0.6-0.3-1.2-0.7-2-1-1.9-2-3.7-3-5.5-0.3-0.5-0.7-1.5-1.1-2.3-0.8-1.4-1.6-2.5-2.2-3.9-0.9-1.9-2.1-3.9-3.3-5.8 0 0 0-0.2-0.2-0.2-1-1.6-1.7-3.4-2.9-4.7-0.6-0.8-1-1.6-1.6-2.6-0.4-0.3-0.7-1.1-0.9-1.7-0.6-0.8-1.2-1.8-1.8-2.5-1.9-2.8-3.7-5.3-5.6-8q0-0.4-0.4-0.6c-2-2.7-3.9-5.3-6.1-7.8-1.9-2.7-4.3-5.5-6.4-7.8-2.4-2.7-4.5-5.1-6.6-7.6-1.6-1.8-3.2-3.1-4.5-4.7-1.2-1.2-2.6-2.3-3.5-3.5-1.2-1.4-2.6-2.5-3.7-3.5-1.4-1.4-2.8-2.5-3.9-3.7-1.2-1.2-2.4-2.2-3.7-3.3-1.6-1.6-3.6-3.1-5.3-4.5-1.8-1.4-3.1-2.7-4.9-3.9-1.5-1.4-3.5-2.9-5.4-4.1-1.8-1.4-3.6-2.7-5.3-3.9 0 0-0.4-0.2-0.6-0.4-1.9-1.4-3.7-2.7-5.7-3.7-1.5-1.2-3.3-2.3-4.8-3.1-2-1.2-3.7-2.6-5.9-3.5-1.7-1.2-3.9-2.4-5.6-3.5-2.4-1.2-4.5-2.4-6.7-3.5q-2.9-1.5-5.8-3-3.1-1.3-6.2-2.7c-1-0.6-2.2-1-3.4-1.6-1.5-0.7-3.3-1.3-4.8-1.9q-2-1-3.9-1.8c-2.2-0.9-4.3-1.5-6.5-2.3 0 0-0.2 0-0.4 0-0.7-0.4-1.7-0.8-2.7-1-1.2-0.4-1.9-0.8-3.1-1.1-2-0.6-3.7-1.2-5.7-1.8-0.4 0-0.5-0.2-0.7-0.2q-2-0.6-3.9-1.2c-1-0.4-2.2-0.6-3.2-0.9-1.5-0.6-3.3-0.8-4.8-1.2q-1.2-0.4-2.4-0.6c-1.7-0.4-3.7-1-5.2-1.4-4.3-0.9-8.4-1.5-12.7-2.3-3.9-0.8-8-1.4-11.9-1.8q-2.7-0.1-5.7-0.5-2.9-0.3-5.8-0.6c-1.4 0-2.5-0.2-3.9-0.2-0.6 0-1.4 0-2 0-1.5 0-3.1 0-4.6-0.2-0.4 0-1 0-1.4 0q-3.2 0-6.4 0c-18.2 0-36.5 1.7-54.8 5.8-0.6 0-1 0.2-1.6 0.4q-4.4 1.2-8.8 2.4c-2.9 0.9-5.6 1.7-8.5 2.7-2.8 0.6-5.1 1.6-7.6 2.3-1.6 0.6-3.4 1.2-4.7 1.8-1.8 0.4-3.3 1-5.3 1.7 0 0-0.2 0-0.4 0-1.9 0.8-3.9 1.6-5.6 2.4-1 0.2-2 0.6-2.8 1-1.1 0.5-2.5 1.1-3.7 1.5-0.9 0.6-2.1 1-3.3 1.6-2.7 0.9-5.4 2.3-8.4 3.7q-4.1 1.9-8.3 3.9c0 0-0.2 0.2-0.6 0.2-2.8 1.3-5.1 2.7-7.6 3.9-2.8 1.1-5.3 2.7-7.8 3.9-1.8 0.9-3.3 1.7-4.9 2.7-1.8 1-3.1 1.8-4.9 2.7-2.1 1.4-4.3 2.4-6.2 3.7q-2.4 1.4-4.5 2.8c-2.2 1.3-4.3 2.9-6.2 4.1q-2.6 1.7-5.1 3.3c-2.7 1.7-5.1 3.5-7.4 5.2-2.6 2-5.1 3.7-7.4 5.7-45.5 35.5-87.4 75-124.8 118.7-58.9 63.4-119.1 125.4-180.2 186.2q105.9-91 204.7-189.5c40.4-40.4 87-73.5 138.3-98.5z"/><path class="v" d="m647.3 321.1c-14.2 14.8-28.4 29.6-42.5 44.4-49.9 48.5-104.5 91.8-163 129.8-54.6 35.5-117.8 56.2-182.9 59.3-85.4 5.1-165.7-40.6-204.9-116.8-41.1-85.2-27.7-186.7 34.3-258.1 10.6-11.3 21.9-22 33.9-32 92.3-76.8 220.6-93.5 329.6-42.8 40.9 19.5 76.8 48.5 104.5 84.6 7.6 10.7 14.4 21.8 19.9 33.5-37.1-46.6-87.4-80.9-144.3-98.6-52.1-14.3-106.9-13.9-158.5 0.9-99.3 34.5-156.6 137.9-133.4 240.4 12.5 60.6 56.5 110.3 115.4 129.8 57.5 14.3 118.6 8 172-17.7 82.1-39 156.5-91.8 219.9-156.6z"/><path class="w" d="m647.3 321.1c-14.2 14.8-28.4 29.6-42.5 44.4-49.9 48.5-104.5 91.8-163 129.8-54.6 35.5-117.8 56.2-182.9 59.3-85.4 5.1-165.7-40.6-204.9-116.8-41.1-85.2-27.7-186.7 34.3-258.1 10.6-11.3 21.9-22 33.9-32 92.3-76.8 220.6-93.5 329.6-42.8 40.9 19.5 76.8 48.5 104.5 84.6 7.6 10.7 14.4 21.8 19.9 33.5-37.1-46.6-87.4-80.9-144.3-98.6-52.1-14.3-106.9-13.9-158.5 0.9-99.3 34.5-156.6 137.9-133.4 240.4 12.5 60.6 56.5 110.3 115.4 129.8 57.5 14.3 118.6 8 172-17.7 82.1-39 156.5-91.8 219.9-156.6z"/><path class="x" d="m647.3 321.1c-14.2 14.8-28.4 29.6-42.5 44.4-49.9 48.5-104.5 91.8-163 129.8-54.6 35.5-117.8 56.2-182.9 59.3-85.4 5.1-165.7-40.6-204.9-116.8-41.1-85.2-27.7-186.7 34.3-258.1 10.6-11.3 21.9-22 33.9-32 92.3-76.8 220.6-93.5 329.6-42.8 40.9 19.5 76.8 48.5 104.5 84.6 7.6 10.7 14.4 21.8 19.9 33.5-37.1-46.6-87.4-80.9-144.3-98.6-52.1-14.3-106.9-13.9-158.5 0.9-99.3 34.5-156.6 137.9-133.4 240.4 12.5 60.6 56.5 110.3 115.4 129.8 57.5 14.3 118.6 8 172-17.7 82.1-39 156.5-91.8 219.9-156.6z"/><path class="y" d="m54 437.8c-41.1-85.2-27.7-186.7 34.3-258.1 10.6-11.3 21.9-22 33.9-32 92.3-76.8 220.6-93.5 329.6-42.8 40.9 19.5 76.8 48.5 104.5 84.6 7.6 10.7 14.4 21.8 19.9 33.5-37.1-46.6-87.4-80.9-144.3-98.6-52.1-14.3-106.9-13.9-158.5 0.9-99.3 34.5-156.6 137.9-133.4 240.4 12.5 60.6-46.8 148.5-86 72.1z"/><path class="z" d="m54 437.8c-41.1-85.2-27.7-186.7 34.3-258.1 10.6-11.3 21.9-22 33.9-32 92.3-76.8 220.6-93.5 329.6-42.8 40.9 19.5 76.8 48.5 104.5 84.6 7.6 10.7 14.4 21.8 19.9 33.5-37.1-46.6-87.4-80.9-144.3-98.6-52.1-14.3-106.9-13.9-158.5 0.9-99.3 34.5-156.6 137.9-133.4 240.4 12.5 60.6-46.8 148.5-86 72.1z"/></svg>